<svg xmlns="http://www.w3.org/2000/svg" viewBox="0 0 32 15" width="32" height="15">
	<style>
		tspan { white-space:pre }
		.shp0 { fill: #1f373d } 
	</style>
	<path id="Shape 4" class="shp0" d="M23.82 1.43L23.11 2.14C23.07 2.19 23.07 2.27 23.11 2.32L27.68 6.88L2.11 6.88C2.04 6.88 1.98 6.93 1.98 7L1.98 8C1.98 8.07 2.04 8.12 2.11 8.12L27.69 8.12L23.12 12.69C23.08 12.73 23.08 12.81 23.12 12.86L23.83 13.57C23.88 13.62 23.96 13.62 24.01 13.57L29.98 7.59C30.03 7.54 30.03 7.46 29.98 7.42L29.28 6.71L29.28 6.71L24 1.43C23.95 1.38 23.87 1.38 23.82 1.43Z" />
</svg>