<svg xmlns="http://www.w3.org/2000/svg" viewBox="0 0 15 32" width="15" height="32">
	<style>
		tspan { white-space:pre }
		.shp0 { fill: #919eb1 } 
	</style>
	<path id="Shape 2" class="shp0" d="M13.57 23.82L12.86 23.11C12.81 23.07 12.73 23.07 12.68 23.11L8.12 27.67L8.12 2.1C8.12 2.04 8.07 1.98 8 1.98L7 1.98C6.93 1.98 6.87 2.04 6.87 2.1L6.87 27.68L2.31 23.12C2.27 23.08 2.19 23.08 2.14 23.12L1.43 23.83C1.38 23.88 1.38 23.96 1.43 24.01L7.41 29.98C7.46 30.03 7.54 30.03 7.58 29.98L8.29 29.28L8.29 29.28L13.57 24C13.62 23.95 13.62 23.87 13.57 23.82Z" />
</svg>