<svg xmlns="http://www.w3.org/2000/svg" viewBox="0 0 19 19" width="19" height="19">
	<style>
		tspan { white-space:pre }
		.shp0 { fill: #1f373d } 
	</style>
	<path id="Composite Path" class="shp0" d="M17.44 8.2C17.34 7.69 17.18 7.19 16.98 6.71C16.78 6.24 16.54 5.78 16.25 5.36C15.96 4.94 15.64 4.54 15.28 4.19C14.92 3.83 14.53 3.5 14.1 3.22C13.68 2.93 13.23 2.68 12.75 2.48C12.28 2.28 11.77 2.12 11.26 2.02C10.74 1.91 10.2 1.86 9.66 1.86C9.12 1.86 8.59 1.91 8.06 2.02C7.55 2.12 7.05 2.28 6.57 2.48C6.1 2.68 5.64 2.93 5.22 3.22C4.8 3.5 4.4 3.83 4.04 4.19C3.68 4.54 3.36 4.94 3.07 5.36C2.79 5.78 2.54 6.24 2.34 6.71C2.14 7.19 1.98 7.69 1.88 8.2C1.77 8.73 1.72 9.27 1.72 9.8C1.72 10.34 1.77 10.88 1.88 11.4C1.98 11.91 2.14 12.42 2.34 12.9C2.54 13.37 2.79 13.82 3.07 14.25C3.36 14.67 3.68 15.06 4.04 15.42C4.4 15.78 4.8 16.11 5.22 16.39C5.64 16.68 6.1 16.92 6.57 17.12C7.05 17.33 7.55 17.48 8.06 17.58C8.59 17.69 9.12 17.75 9.66 17.75C10.2 17.75 10.74 17.69 11.26 17.58C11.77 17.48 12.28 17.33 12.75 17.12C13.23 16.92 13.68 16.68 14.1 16.39C14.53 16.11 14.92 15.78 15.28 15.42C15.64 15.06 15.96 14.67 16.25 14.25C16.54 13.82 16.78 13.37 16.98 12.9C17.18 12.42 17.34 11.91 17.44 11.4C17.55 10.88 17.61 10.34 17.61 9.8C17.61 9.27 17.55 8.73 17.44 8.2ZM16.44 9.73C16.34 9.71 14.05 9.22 11.72 9.51C11.67 9.4 11.62 9.28 11.57 9.16C11.43 8.83 11.28 8.5 11.12 8.18C13.8 7.08 14.89 5.51 14.9 5.49C15.85 6.65 16.43 8.13 16.44 9.73ZM14.14 4.71C14.12 4.74 13.16 6.21 10.6 7.17C9.44 5.04 8.16 3.34 8.06 3.21C8.58 3.09 9.11 3.02 9.66 3.02C11.38 3.02 12.95 3.66 14.14 4.71ZM8.04 3.21L8.04 3.22C8.04 3.22 8.03 3.22 8.01 3.22C8.01 3.22 8.03 3.22 8.04 3.21ZM6.77 3.67C6.86 3.79 8.11 5.49 9.29 7.58C6.03 8.44 3.2 8.41 3.02 8.4C3.46 6.3 4.87 4.56 6.77 3.67ZM2.87 9.8C2.87 9.73 2.88 9.66 2.88 9.59C3 9.59 6.36 9.67 9.85 8.62C10.04 9 10.23 9.39 10.4 9.78C10.31 9.8 10.22 9.83 10.13 9.86C6.47 11.04 4.61 14.33 4.61 14.33L4.61 14.34C3.54 13.13 2.87 11.54 2.87 9.8ZM9.66 16.59C8.02 16.59 6.51 16 5.34 15.03C5.43 15.11 5.49 15.15 5.49 15.15C5.49 15.15 6.79 12.32 10.82 10.91C10.83 10.91 10.85 10.9 10.86 10.9C11.82 13.38 12.21 15.46 12.31 16.05C11.5 16.4 10.6 16.59 9.66 16.59ZM13.45 15.43C13.38 15.02 13.02 13.03 12.13 10.58C14.32 10.23 16.22 10.83 16.36 10.88C16.06 12.77 14.98 14.4 13.45 15.43Z" />
</svg>