<svg xmlns="http://www.w3.org/2000/svg" viewBox="0 0 20 14" width="20" height="14">
	<style>
		tspan { white-space:pre }
		.shp0 { fill: #0f0f0f } 
	</style>
	<path id="Shape 3" class="shp0" d="M16.77 5.72L16.77 5.71L16.77 2.99C16.77 1.77 15.91 1.32 15.1 1.32L4.85 1.32C4.04 1.32 3.18 1.75 3.18 2.99L3.18 5.71L3.18 5.72C2.37 5.81 1.6 6.35 1.6 7.59L1.6 9.71C1.6 10.07 1.88 10.36 2.24 10.36L2.46 10.36L2.46 12.03C2.46 12.39 2.75 12.68 3.11 12.68L3.72 12.68C4.08 12.68 4.36 12.39 4.36 12.03L4.36 10.34L15.64 10.34L15.64 12.03C15.64 12.39 15.92 12.68 16.28 12.68L16.89 12.68C17.25 12.68 17.54 12.39 17.54 12.03L17.54 10.34L17.76 10.34C18.12 10.34 18.4 10.06 18.4 9.7L18.4 7.59C18.35 6.35 17.58 5.81 16.77 5.72ZM3.79 2.99L3.82 2.99C3.82 2.15 4.38 1.97 4.85 1.97L15.1 1.97C15.56 1.97 16.12 2.15 16.12 2.99L16.12 5.71L15.64 5.71L15.64 4.16C15.64 3.8 15.35 3.51 14.99 3.51L11.03 3.51C10.67 3.51 10.39 3.8 10.39 4.16L10.39 5.71L9.63 5.71L9.63 4.16C9.63 3.8 9.34 3.51 8.98 3.51L5.03 3.51C4.67 3.51 4.38 3.8 4.38 4.16L4.38 5.71L3.79 5.71L3.79 2.99ZM14.99 4.16L14.99 5.71L11.03 5.71L11.03 4.16L14.99 4.16L14.99 4.16ZM9.02 4.16L9.02 5.71L5.07 5.71L5.07 4.16L9.02 4.16L9.02 4.16ZM3.7 12.03L3.09 12.03L3.09 10.34L3.7 10.34L3.7 12.03L3.7 12.03ZM16.86 12.03L16.25 12.03L16.25 10.34L16.86 10.34L16.86 12.03ZM17.7 9.71L16.86 9.71L16.25 9.71L3.7 9.71L3.09 9.71L2.23 9.71L2.23 8.76L17.7 8.76L17.7 9.71ZM17.7 8.11L2.23 8.11L2.23 7.59C2.23 6.51 3.02 6.35 3.47 6.35L3.81 6.35L5.05 6.35L9 6.35L11.03 6.35L14.99 6.35L16.12 6.35L16.46 6.35C16.93 6.35 17.7 6.51 17.7 7.59L17.7 8.11L17.7 8.11Z" />
</svg>