<svg xmlns="http://www.w3.org/2000/svg" viewBox="0 0 13 14" width="13" height="14">
	<style>
		tspan { white-space:pre }
		.shp0 { fill: #000000 } 
	</style>
	<path id="Composite Path" class="shp0" d="M9.26 1.16L6.67 1.16C5.44 1.16 4.43 2.17 4.43 3.41L4.43 4.72C2.94 4.94 1.78 6.23 1.78 7.79C1.78 8.04 1.99 8.24 2.23 8.24L7.53 8.24C7.77 8.24 7.98 8.04 7.98 7.79C7.98 6.23 6.82 4.94 5.33 4.72L5.33 3.41C5.33 2.66 5.93 2.06 6.67 2.06L9.26 2.06C10 2.06 10.61 2.66 10.61 3.41L10.61 12.2C10.61 12.45 10.81 12.65 11.06 12.65C11.3 12.65 11.5 12.45 11.5 12.2L11.5 3.41C11.5 2.17 10.5 1.16 9.26 1.16ZM7.03 7.34L2.73 7.34C2.93 6.34 3.82 5.59 4.88 5.59C5.94 5.59 6.83 6.34 7.03 7.34ZM5.33 9.33L5.33 10C5.33 10.25 5.13 10.45 4.88 10.45C4.63 10.45 4.43 10.25 4.43 10L4.43 9.33C4.43 9.08 4.63 8.88 4.88 8.88C5.13 8.88 5.33 9.08 5.33 9.33ZM5.32 11.53L5.32 12.2C5.32 12.45 5.12 12.65 4.87 12.65C4.63 12.65 4.43 12.45 4.43 12.2L4.43 11.53C4.43 11.28 4.63 11.08 4.87 11.08C5.12 11.08 5.32 11.28 5.32 11.53ZM3.57 9.33L3.57 10C3.57 10.25 3.37 10.45 3.12 10.45C2.87 10.45 2.67 10.25 2.67 10L2.67 9.33C2.67 9.08 2.87 8.88 3.12 8.88C3.37 8.88 3.57 9.08 3.57 9.33ZM3.56 11.53L3.56 12.2C3.56 12.45 3.36 12.65 3.11 12.65C2.86 12.65 2.66 12.45 2.66 12.2L2.66 11.53C2.66 11.28 2.86 11.08 3.11 11.08C3.36 11.08 3.56 11.28 3.56 11.53ZM7.08 9.33L7.08 10C7.08 10.25 6.88 10.45 6.64 10.45C6.39 10.45 6.19 10.25 6.19 10L6.19 9.33C6.19 9.08 6.39 8.88 6.64 8.88C6.88 8.88 7.08 9.08 7.08 9.33ZM7.08 11.53L7.08 12.2C7.08 12.45 6.88 12.65 6.63 12.65C6.38 12.65 6.18 12.45 6.18 12.2L6.18 11.53C6.18 11.28 6.38 11.08 6.63 11.08C6.88 11.08 7.08 11.28 7.08 11.53Z" />
</svg>