<svg xmlns="http://www.w3.org/2000/svg" viewBox="0 0 22 29" width="22" height="29">
	<style>
		tspan { white-space:pre }
		.shp0 { fill: #ffffff } 
	</style>
	<path id="Composite Path" class="shp0" d="M10.8 1.4C5.52 1.4 1.22 5.69 1.22 10.97C1.22 12.35 1.51 13.66 2.06 14.88C4.45 20.11 9.04 25.64 10.39 27.21C10.49 27.33 10.64 27.4 10.8 27.4C10.95 27.4 11.1 27.33 11.2 27.21C12.55 25.64 17.14 20.12 19.53 14.88C20.09 13.66 20.37 12.35 20.37 10.97C20.37 5.69 16.08 1.4 10.8 1.4ZM10.8 15.94C8.05 15.94 5.83 13.71 5.83 10.97C5.83 8.23 8.05 6 10.8 6C13.54 6 15.77 8.23 15.77 10.97C15.77 13.71 13.54 15.94 10.8 15.94Z" />
</svg>