<svg xmlns="http://www.w3.org/2000/svg" viewBox="0 0 29 29" width="29" height="29">
	<style>
		tspan { white-space:pre }
		.shp0 { fill: #ffffff } 
	</style>
	<path id="Shape 1" class="shp0" d="M26.36 21.71L22.53 17.87C21.76 17.11 20.5 17.14 19.71 17.93L17.77 19.86C17.65 19.79 17.53 19.72 17.39 19.65C16.17 18.97 14.5 18.04 12.74 16.29C10.98 14.52 10.05 12.85 9.37 11.63C9.3 11.5 9.23 11.37 9.17 11.26L10.46 9.96L11.1 9.32C11.89 8.53 11.92 7.26 11.15 6.5L7.32 2.66C6.55 1.9 5.29 1.92 4.5 2.72L3.42 3.8L3.44 3.83C3.08 4.3 2.78 4.83 2.55 5.4C2.35 5.95 2.22 6.48 2.16 7C1.65 11.2 3.57 15.04 8.78 20.25C15.98 27.44 21.78 26.9 22.03 26.87C22.57 26.81 23.1 26.68 23.63 26.47C24.2 26.25 24.73 25.95 25.19 25.59L25.22 25.61L26.31 24.53C27.1 23.74 27.13 22.48 26.36 21.71Z" />
</svg>