<svg xmlns="http://www.w3.org/2000/svg" viewBox="0 0 19 16" width="19" height="16">
	<style>
		tspan { white-space:pre }
		.shp0 { fill: #1f373d } 
	</style>
	<path id="Path" class="shp0" d="M17.71 3.35C17.13 3.61 16.51 3.78 15.85 3.86C16.52 3.46 17.04 2.82 17.28 2.06C16.65 2.44 15.95 2.71 15.21 2.85C14.62 2.22 13.78 1.83 12.84 1.83C11.05 1.83 9.6 3.28 9.6 5.08C9.6 5.33 9.62 5.58 9.68 5.82C6.98 5.68 4.59 4.39 2.98 2.42C2.71 2.9 2.54 3.46 2.54 4.06C2.54 5.18 3.12 6.17 3.99 6.76C3.46 6.74 2.96 6.6 2.52 6.35C2.52 6.37 2.52 6.38 2.52 6.39C2.52 7.97 3.64 9.28 5.12 9.58C4.85 9.65 4.56 9.69 4.27 9.69C4.06 9.69 3.86 9.67 3.66 9.63C4.07 10.92 5.27 11.86 6.69 11.89C5.58 12.76 4.18 13.28 2.66 13.28C2.39 13.28 2.14 13.26 1.88 13.24C3.32 14.16 5.03 14.69 6.86 14.69C12.84 14.69 16.1 9.74 16.1 5.45C16.1 5.31 16.1 5.17 16.09 5.03C16.73 4.57 17.28 4 17.71 3.35Z" />
</svg>